<svg xmlns="http://www.w3.org/2000/svg" viewBox="0 0 32 32" width="32" height="32" preserveAspectRatio="xMidYMid meet" style="width: 100%; height: 100%; transform: translate3d(0px, 0px, 0px);"><defs><clipPath id="__lottie_element_265"><rect width="32" height="32" x="0" y="0"></rect></clipPath></defs><g clip-path="url(#__lottie_element_265)"><g id="primaryBG" transform="matrix(1,0,0,1,0,0)" opacity="1" style="display: block;"><g opacity="1" transform="matrix(1,0,0,1,16,16)"><path fill="rgb(204,15,223)" fill-opacity="1" d=" M0,16 C-8.836000442504883,16 -16,8.836999893188477 -16,0 C-16,-8.836000442504883 -8.836000442504883,-16 0,-16 C8.836999893188477,-16 16,-8.836000442504883 16,0 C16,8.836999893188477 8.836999893188477,16 0,16z"></path></g></g><g id="playpause2" transform="matrix(1,0,0,1,-0.062000274658203125,-0.25)" opacity="1" style="display: block;"><g opacity="1" transform="matrix(1,0,0,1,20,16)"><path fill="rgb(255,255,255)" fill-opacity="1" d=" M-1,-6 C-1.5520000457763672,-6 -2,-5.552000045776367 -2,-5 C-2,-5 -2,5 -2,5 C-2,5.552999973297119 -1.5520000457763672,6 -1,6 C-1,6 1,6 1,6 C1.5520000457763672,6 2,5.552999973297119 2,5 C2,5 2,-5 2,-5 C2,-5.552000045776367 1.5520000457763672,-6 1,-6 C1,-6 -1,-6 -1,-6z"></path></g><g opacity="1" transform="matrix(1,0,0,1,12,16)"><path fill="rgb(255,255,255)" fill-opacity="1" d=" M-1,-6 C-1.5520000457763672,-6 -2,-5.552000045776367 -2,-5 C-2,-5 -2,5 -2,5 C-2,5.552999973297119 -1.5520000457763672,6 -1,6 C-1,6 1,6 1,6 C1.5520000457763672,6 2,5.552999973297119 2,5 C2,5 2,-5 2,-5 C2,-5.552000045776367 1.5520000457763672,-6 1,-6 C1,-6 -1,-6 -1,-6z"></path></g></g><g id="playpause1" style="display: none;"><g><path></path></g></g></g></svg>