
<svg xmlns="http://www.w3.org/2000/svg" viewBox="0 0 32 32" width="32" height="32" preserveAspectRatio="xMidYMid meet" style="width: 100%; height: 100%; transform: translate3d(0px, 0px, 0px);"><defs><clipPath id="__lottie_element_2"><rect width="32" height="32" x="0" y="0"></rect></clipPath></defs><g clip-path="url(#__lottie_element_2)"><g id="primaryBG" transform="matrix(1,0,0,1,0,0)" opacity="1" style="display: block;"><g opacity="1" transform="matrix(1,0,0,1,16,16)"><path fill="rgb(204,15,223)" fill-opacity="1" d=" M0,16 C-8.836000442504883,16 -16,8.836999893188477 -16,0 C-16,-8.836000442504883 -8.836000442504883,-16 0,-16 C8.836999893188477,-16 16,-8.836000442504883 16,0 C16,8.836999893188477 8.836999893188477,16 0,16z"></path></g></g><g id="playpause2" style="display: none;"><g><path></path></g><g><path></path></g></g><g id="playpause1" transform="matrix(1,0,0,1,-0.9030008316040039,0)" opacity="1" style="display: block;"><g opacity="1" transform="matrix(1,0,0,1,18.10099983215332,16.070999145507812)"><path fill="rgb(255,255,255)" fill-opacity="1" d=" M5.414999961853027,0.8199999928474426 C5.507999897003174,0.7720000147819519 5.593999862670898,0.7099999785423279 5.666999816894531,0.6370000243186951 C5.739999771118164,0.5640000104904175 5.802000045776367,0.4790000021457672 5.849999904632568,0.38499999046325684 C5.97599983215332,0.13899999856948853 5.989999771118164,-0.1340000033378601 5.910999774932861,-0.3779999911785126 C5.831999778747559,-0.621999979019165 5.659999847412109,-0.8360000252723694 5.414999961853027,-0.9620000123977661 C5.414999961853027,-0.9620000123977661 -4.645999908447266,-6.104000091552734 -4.645999908447266,-6.104000091552734 C-4.785999774932861,-6.177000045776367 -4.942999839782715,-6.214000225067139 -5.1020002365112305,-6.214000225067139 C-5.6539998054504395,-6.214000225067139 -6.1020002365112305,-5.765999794006348 -6.1020002365112305,-5.214000225067139 C-6.1020002365112305,-5.214000225067139 -6.1020002365112305,5.072000026702881 -6.1020002365112305,5.072000026702881 C-6.1020002365112305,5.230999946594238 -6.064000129699707,5.386000156402588 -5.992000102996826,5.5269999504089355 C-5.741000175476074,6.019000053405762 -5.13700008392334,6.214000225067139 -4.645999908447266,5.9629998207092285 C-4.645999908447266,5.9629998207092285 5.414999961853027,0.8199999928474426 5.414999961853027,0.8199999928474426z"></path></g></g></g></svg>